<svg width="140" height="140" viewBox="0 0 140 140" fill="none" xmlns="http://www.w3.org/2000/svg">
<rect width="140" height="140" rx="10" fill="#970FF9"/>
<path fill-rule="evenodd" clip-rule="evenodd" d="M52.2317 34.121C36.2559 36.1948 23.8439 47.3649 20.6504 62.5427C20.3944 63.759 20.1178 66.2469 20.0353 68.0714C19.4066 81.9939 27.2174 95.0133 39.936 101.243C44.3583 103.409 47.9746 104.355 53.6553 104.833L55.6374 105L63.5757 97.1916L71.5137 89.3832L69.5576 89.1969C68.4817 89.0946 64.6725 88.9954 61.0925 88.9763C54.111 88.9395 51.7162 88.6415 48.6607 87.4291C43.0625 85.208 38.7576 80.6408 36.9286 74.9822C36.3962 73.3355 36.3071 72.4705 36.3294 69.1771C36.354 65.5252 36.4065 65.171 37.2619 62.8938C38.4527 59.7237 39.8021 57.7234 42.3728 55.3182C44.7744 53.071 47.3274 51.554 50.2289 50.6495C51.9364 50.1174 53.1405 49.996 58.3925 49.8266L64.5532 49.6278L72.0421 42.3645C77.4405 37.1289 79.5034 34.9573 79.4311 34.5857C79.3349 34.0917 78.7785 34.0691 66.2003 34.0412C58.9787 34.0251 52.6928 34.0611 52.2317 34.121ZM92.547 34.139L85.0765 34.2175L72.3713 46.5318C65.3834 53.3046 59.2825 59.4193 58.8133 60.1198C57.8204 61.6026 57.7634 62.4051 58.4718 64.9322C59.1783 67.4522 60.2013 69.058 62.6963 71.5624C64.4582 73.3313 65.2999 73.9309 67.495 74.9808C71.4349 76.865 72.6502 77.006 87.4742 77.2995L100.194 77.5514L101.481 78.34C105.207 80.6228 104.859 86.1921 100.856 88.3344C100.144 88.7151 98.2399 88.8218 88.2806 89.0393L76.5438 89.2956L75.3933 90.2274C73.7725 91.5408 61.5933 104.056 61.5933 104.408C61.5933 104.609 67.702 104.699 81.2631 104.699H100.933L103.353 104.005C110.903 101.841 116.678 96.5522 119.046 89.6331C120.043 86.7206 120.312 81.0449 119.597 78.0307C118.273 72.4556 113.78 66.9123 108.316 64.1131C104.327 62.0695 104.564 62.0996 89.6779 61.751C79.3363 61.5089 76.1042 61.3505 75.5657 61.0588C71.3228 58.7617 70.8615 53.3256 74.6835 50.6677L75.8927 49.8268L89.5706 49.7478L103.248 49.6687L110.995 42.0831C117.237 35.9701 118.659 34.4436 118.321 34.2189C117.92 33.9519 112.117 33.9339 92.547 34.139Z" fill="white"/>
</svg>
