<svg width="400" height="400" viewBox="0 0 400 400" fill="none" xmlns="http://www.w3.org/2000/svg">
<path d="M266 83L180 83C128.638 83 87 124.638 87 176V176C87 227.362 128.638 269 180 269H266" stroke="url(#paint0_radial_8_48)" stroke-width="30" stroke-linecap="round"/>
<path d="M134 316L265.5 316C291.181 316 312 295.181 312 269.5V269.5C312 243.819 291.181 223 265.5 223L181.725 223" stroke="white" stroke-width="30" stroke-linecap="round"/>
<path d="M312 130L180.5 130C154.819 130 134 150.819 134 176.5V176.5C134 202.181 154.819 223 180.5 223L264.275 223" stroke="white" stroke-width="30" stroke-linecap="round"/>
<defs>
<radialGradient id="paint0_radial_8_48" cx="0" cy="0" r="1" gradientUnits="userSpaceOnUse" gradientTransform="translate(93.5 168.5) rotate(-0.517329) scale(221.509 213.173)">
<stop stop-color="#DAB2FF"/>
<stop offset="1" stop-color="#9810FA"/>
</radialGradient>
</defs>
</svg>
